# xmcd CD database file
#
# Track frame offsets:
#	150
#	15225
#	29454
#	42778
#	56629
#	70572
#	87646
#	100347
#	115319
#	127589
#	145111
#	160337
#	174360
#
# Disc length: 2556 seconds
#
# Revision: 3
# Processed by: cddbd v1.5.2PL0 Copyright (c) Steve Scherf et al.
# Submitted via: CDex 2.21
#
DISCID=9f09fa0d
DTITLE=Charley Pride - Choices
DYEAR=2011
DGENRE=Country
TTITLE0=America The Great
TTITLE1=Except For You
TTITLE2=Hickory Hollow Times And County News
TTITLE3=The Choices She Made
TTITLE4=The Bottom Line
TTITLE5=This Bed's Not Big Enough
TTITLE6=I Miss My Home
TTITLE7=Maybe Love Will Save The Day
TTITLE8=Cajun Party Time
TTITLE9=Guntersville Gazette
TTITLE10=You Touched My Life
TTITLE11=You Can't Sit Still
TTITLE12=Resting Place
EXTD=YEAR: 2011
EXTT0=
EXTT1=
EXTT2=
EXTT3=
EXTT4=
EXTT5=
EXTT6=
EXTT7=
EXTT8=
EXTT9=
EXTT10=
EXTT11=
EXTT12=
PLAYORDER=
